<?xml version="1.0" standalone="no"?>
<!DOCTYPE svg PUBLIC "-//W3C//DTD SVG 20010904//EN"
 "http://www.w3.org/TR/2001/REC-SVG-20010904/DTD/svg10.dtd">
<svg version="1.0" xmlns="http://www.w3.org/2000/svg"
 width="703.000000pt" height="703.000000pt" viewBox="0 0 703.000000 703.000000"
 preserveAspectRatio="xMidYMid meet">
<metadata>
Created by potrace 1.11, written by Peter Selinger 2001-2013
</metadata>
<g transform="translate(0.000000,703.000000) scale(0.100000,-0.100000)"
fill="#000000" stroke="none">
<path d="M3309 7025 c-2 -2 -45 -6 -94 -10 -50 -3 -99 -8 -110 -10 -11 -2 -40
-7 -65 -10 -25 -3 -56 -7 -70 -9 -14 -3 -41 -7 -60 -10 -117 -17 -305 -65
-470 -118 -271 -88 -487 -187 -769 -353 -36 -21 -209 -141 -266 -183 -183
-138 -449 -391 -586 -557 -470 -571 -743 -1236 -807 -1965 -9 -111 -9 -474 1
-570 4 -41 10 -100 13 -130 8 -91 47 -303 79 -440 79 -328 241 -706 439 -1020
41 -66 169 -249 198 -285 219 -267 368 -416 600 -602 212 -169 529 -361 763
-460 214 -91 489 -182 630 -209 11 -2 40 -8 65 -14 46 -10 134 -25 205 -35 22
-4 51 -8 65 -10 83 -14 216 -20 450 -20 305 0 380 5 575 40 44 8 94 17 110 19
58 10 281 67 355 91 419 132 803 336 1140 604 126 100 162 133 310 281 388
387 665 834 841 1356 41 122 98 326 104 374 1 8 5 29 8 45 4 17 9 44 12 60 3
17 7 39 9 50 2 11 7 45 11 75 4 30 9 63 11 73 13 73 18 189 19 427 0 246 -4
344 -20 460 -3 19 -8 55 -11 80 -9 78 -54 285 -89 413 -127 465 -378 943 -689
1312 -189 225 -446 462 -661 611 -39 26 -72 51 -75 54 -3 3 -30 20 -60 39
-316 196 -579 317 -892 411 -75 22 -146 43 -157 45 -12 3 -31 7 -43 10 -81 17
-220 45 -258 50 -71 11 -81 12 -150 20 -36 4 -81 9 -100 12 -43 6 -506 14
-511 8z m531 -188 c14 -3 52 -8 85 -12 52 -6 151 -21 250 -39 17 -3 75 -17
130 -31 55 -14 110 -28 122 -30 68 -15 323 -108 433 -157 134 -60 341 -168
371 -194 8 -8 19 -14 23 -14 16 0 273 -181 370 -260 561 -460 964 -1095 1135
-1792 16 -68 33 -143 36 -168 4 -24 8 -47 10 -50 2 -4 6 -26 9 -51 3 -24 10
-80 16 -124 23 -170 31 -508 16 -655 -3 -36 -8 -87 -11 -115 -4 -42 -13 -103
-30 -210 -75 -469 -303 -998 -607 -1407 -209 -281 -407 -476 -743 -734 -83
-64 -311 -198 -474 -279 -287 -143 -671 -264 -950 -300 -18 -2 -44 -6 -59 -9
-15 -3 -54 -8 -87 -11 -33 -2 -85 -8 -115 -11 -71 -9 -447 -9 -525 0 -110 12
-220 26 -247 31 -16 3 -40 7 -55 10 -16 2 -39 7 -53 10 -14 2 -36 7 -50 9 -14
2 -81 18 -150 36 -511 130 -990 386 -1395 745 -417 371 -751 872 -932 1400
-41 120 -98 323 -113 403 -5 31 -13 68 -16 82 -3 14 -7 39 -8 55 -2 17 -6 41
-9 55 -7 26 -14 85 -24 200 -9 90 -8 510 0 595 50 492 185 920 432 1360 84
150 278 420 394 549 100 111 233 240 366 355 60 52 222 170 320 234 299 195
646 347 985 432 74 19 146 36 160 38 14 3 43 8 65 12 22 4 49 9 60 11 11 2 40
7 65 10 25 3 56 7 70 10 14 2 63 7 110 10 47 4 87 8 90 11 6 5 498 -4 530 -10z"/>
<path d="M3217 6424 c-1 -1 -29 -5 -62 -8 -93 -10 -100 -12 -99 -27 1 -22 16
-162 19 -181 4 -19 17 -137 18 -155 0 -16 15 -16 131 -2 138 16 133 14 128 49
-2 17 -7 32 -11 34 -3 2 -43 -2 -88 -8 -79 -12 -82 -12 -87 8 -12 45 -7 66 17
67 12 0 34 3 50 5 15 2 39 6 55 8 15 2 32 5 37 5 6 1 9 16 7 35 l-4 33 -51 -5
c-29 -3 -69 -5 -91 -6 -36 -1 -39 1 -42 32 -3 20 1 32 9 33 6 0 21 2 32 5 36
7 79 13 108 13 26 1 28 4 25 34 -3 31 -4 32 -51 32 -26 1 -49 0 -50 -1z"/>
<path d="M3886 6409 c-4 -12 -15 -64 -32 -159 -2 -14 -7 -36 -10 -48 -7 -32
-17 -102 -18 -127 -1 -15 8 -21 36 -25 l36 -7 13 66 c7 36 12 70 11 75 -3 8
63 2 128 -12 39 -9 41 -18 26 -114 l-7 -47 36 -7 c20 -3 37 -5 39 -3 2 2 18
82 35 178 35 187 35 191 -20 191 -24 0 -27 -5 -38 -69 -8 -44 -17 -69 -24 -66
-7 1 -45 9 -85 16 l-74 13 6 30 c4 17 9 50 13 74 5 38 4 42 -15 42 -11 0 -27
3 -36 6 -9 3 -18 0 -20 -7z"/>
<path d="M2626 6299 c-54 -15 -100 -30 -102 -32 -5 -4 82 -300 98 -334 9 -19
14 -20 42 -11 17 6 33 12 34 14 2 1 -3 28 -12 59 -18 60 -16 70 13 78 13 3 33
-10 68 -44 51 -52 62 -55 113 -38 l33 12 -58 54 -58 53 22 24 c44 46 20 153
-38 175 -14 5 -33 11 -41 14 -9 2 -60 -8 -114 -24z m115 -59 c19 -11 25 -45
11 -66 -7 -11 -102 -48 -107 -42 -1 2 -7 18 -14 37 -13 39 -14 62 -3 59 4 0
14 1 22 5 51 19 65 20 91 7z"/>
<path d="M4513 6182 c-29 -31 -88 -95 -133 -142 l-80 -85 41 -18 c42 -18 42
-18 68 7 l26 24 60 -25 c77 -32 83 -38 79 -71 -3 -25 2 -30 40 -44 l43 -16 2
141 c3 179 3 207 2 233 -1 16 -13 26 -41 38 -22 9 -44 16 -48 16 -4 0 -30 -26
-59 -58z m70 -114 c-2 -40 -5 -73 -7 -75 -2 -2 -25 5 -51 15 l-48 19 39 44
c21 24 44 49 49 56 19 24 23 13 18 -59z"/>
<path d="M2238 6144 c-16 -8 -28 -16 -28 -19 0 -8 150 -309 159 -318 5 -5 21
-2 40 7 36 19 38 8 -41 171 -92 190 -87 183 -130 159z"/>
<path d="M4915 6044 c-9 -14 -15 -27 -13 -29 2 -1 22 -14 45 -29 l43 -26 -66
-107 c-36 -59 -72 -116 -80 -128 -13 -20 -12 -22 21 -38 20 -9 37 -17 39 -17
1 0 36 54 76 120 41 66 78 120 82 120 5 0 26 -11 48 -25 l39 -25 16 22 c8 13
15 28 15 34 0 10 -226 154 -242 154 -3 0 -13 -12 -23 -26z"/>
<path d="M1938 5979 l-28 -20 41 -61 c22 -33 39 -61 37 -62 -1 -1 -33 -23 -70
-49 l-67 -47 -42 60 -42 60 -28 -21 c-16 -11 -29 -25 -29 -30 0 -6 15 -30 33
-54 17 -24 61 -86 97 -139 36 -52 72 -95 80 -95 8 0 25 7 38 17 l23 18 -45 64
-45 65 32 19 c18 11 34 23 37 26 21 22 73 51 79 43 43 -67 78 -112 86 -112 18
0 57 39 52 52 -2 7 -38 59 -78 115 -41 57 -78 111 -84 119 -16 26 -39 53 -45
53 -3 0 -17 -10 -32 -21z"/>
<path d="M5368 5771 c-1 -5 -50 -59 -108 -121 -140 -151 -135 -141 -101 -174
l28 -27 48 56 c27 30 51 55 55 55 4 0 34 -25 68 -56 l61 -55 -49 -52 c-28 -29
-50 -56 -50 -61 0 -5 12 -19 27 -32 l27 -23 28 32 c16 18 48 52 71 77 24 25
67 71 97 103 l53 57 -23 25 c-13 14 -28 25 -33 25 -6 0 -31 -22 -56 -49 l-46
-50 -63 57 -62 57 45 52 c25 28 45 55 44 60 0 13 -57 54 -61 44z"/>
<path d="M1475 5591 c-116 -54 -158 -195 -71 -240 44 -23 70 -19 143 20 79 43
98 47 107 24 17 -44 -56 -105 -136 -114 -3 -1 -1 -17 5 -36 7 -24 16 -35 29
-35 60 0 160 83 178 148 8 30 6 44 -11 79 -17 34 -28 45 -60 55 -38 11 -44 9
-124 -32 -67 -35 -88 -41 -97 -32 -20 20 10 64 62 90 32 16 45 29 46 45 1 52
-10 56 -71 28z"/>
<path d="M1142 5224 c-12 -18 -22 -40 -22 -47 0 -7 13 -52 29 -100 17 -48 25
-84 18 -80 -7 4 -36 22 -66 41 l-55 35 -22 -28 c-13 -16 -21 -32 -18 -36 6
-11 292 -199 301 -199 9 0 47 59 41 64 -1 2 -24 17 -50 35 -30 20 -48 39 -48
51 0 18 8 20 70 21 39 1 75 3 80 4 6 1 16 3 23 4 6 1 22 19 35 41 l23 40 -33
-4 c-18 -2 -74 -7 -124 -11 l-90 -7 -13 43 c-7 24 -17 55 -22 69 -4 14 -11 40
-14 57 -9 45 -17 47 -43 7z"/>
<path d="M5665 5213 c-93 -24 -173 -48 -177 -51 -3 -4 6 -22 21 -39 24 -29 31
-32 58 -24 29 8 32 6 75 -54 l46 -63 -18 -30 c-18 -30 -18 -30 10 -63 15 -19
30 -32 32 -29 2 3 50 76 107 164 l102 158 -26 39 c-14 22 -33 39 -43 38 -9 -1
-93 -21 -187 -46z m148 -55 c-4 -7 -24 -36 -44 -65 l-36 -52 -32 44 c-18 25
-31 45 -29 46 2 0 30 9 63 19 75 22 88 24 78 8z"/>
<path d="M2297 5068 c-8 -5 -11 -213 -11 -717 l-1 -711 335 0 c355 0 401 5
490 50 78 40 147 125 171 212 55 199 -38 398 -216 464 l-30 11 50 24 c65 31
121 88 154 158 22 48 26 69 26 151 0 82 -4 103 -26 151 -51 108 -164 188 -289
204 -72 9 -639 12 -653 3z m670 -186 c75 -39 115 -109 115 -204 1 -104 -58
-184 -154 -212 -61 -18 -454 -21 -460 -4 -2 7 -3 110 -3 228 l1 215 135 5
c195 7 315 -2 366 -28z m-3 -611 c66 -26 127 -96 142 -163 17 -75 -4 -173 -48
-224 -65 -74 -85 -78 -347 -82 -147 -2 -236 0 -240 6 -3 6 -6 115 -5 244 l1
233 159 5 c172 5 292 -1 338 -19z"/>
<path d="M3633 5072 l-23 -3 1 -715 0 -714 89 0 90 0 2 328 3 327 388 1 387 0
0 -328 0 -328 90 0 90 0 0 715 c0 565 -3 715 -12 716 -15 1 -124 1 -150 0 -17
-1 -18 -23 -18 -309 l0 -307 -387 0 -388 0 -3 308 c-1 192 -6 307 -12 308 -36
3 -129 3 -147 1z"/>
<path d="M6088 4902 c-1 -4 -25 -25 -53 -47 -27 -22 -88 -71 -135 -110 -47
-38 -87 -70 -89 -72 -6 -4 8 -47 22 -66 12 -18 17 -18 98 -4 108 20 149 26
149 22 0 -3 -132 -108 -188 -151 -7 -5 35 -79 44 -77 5 1 30 4 54 7 25 3 79
10 120 16 41 6 100 13 130 17 30 3 56 7 58 8 5 5 -9 50 -21 66 -11 15 -23 15
-137 -6 -69 -13 -126 -22 -127 -21 -2 1 44 40 102 85 98 78 103 84 93 107 -10
21 -18 27 -38 26 -16 0 -108 -14 -152 -22 -92 -18 -94 -13 -16 45 40 31 87 67
105 81 l31 25 -16 39 c-16 38 -27 48 -34 32z"/>
<path d="M889 4735 c-14 -8 -33 -24 -41 -37 -18 -27 -78 -168 -78 -183 0 -10
328 -151 334 -144 2 2 10 18 18 36 l16 32 -59 23 c-55 21 -59 25 -54 48 4 14
8 27 10 29 2 2 36 7 75 11 39 4 73 9 75 11 1 2 10 21 19 42 l16 39 -53 -6
c-28 -4 -64 -9 -79 -11 -23 -5 -28 -2 -28 16 0 72 -106 131 -171 94z m82 -86
c14 -14 18 -27 13 -41 -10 -34 -34 -88 -38 -88 -4 0 -80 31 -84 35 -7 6 41 96
56 104 24 15 29 14 53 -10z"/>
<path d="M685 4248 c-8 -19 -54 -242 -51 -245 6 -7 342 -73 352 -69 6 2 17 33
24 68 15 79 16 84 28 134 9 41 9 42 -24 52 -32 10 -34 9 -40 -16 -3 -15 -10
-40 -15 -57 -4 -16 -10 -43 -12 -60 -4 -28 -6 -30 -43 -27 -21 2 -40 5 -42 6
-1 2 6 42 16 89 l19 86 -30 7 c-37 8 -41 2 -56 -71 -20 -98 -18 -95 -54 -88
-18 3 -34 7 -35 9 -2 1 4 41 13 89 10 47 16 87 14 89 -15 12 -60 15 -64 4z"/>
<path d="M5995 4168 c4 -18 8 -37 9 -43 0 -5 16 -15 35 -20 37 -11 43 -23 56
-114 6 -48 5 -51 -20 -63 -25 -11 -26 -16 -20 -52 3 -22 8 -42 10 -44 4 -5 38
15 225 132 93 58 109 72 105 90 -3 11 -6 31 -8 43 -4 27 -9 33 -34 38 -10 2
-18 4 -18 5 0 1 -11 3 -25 4 -29 4 -264 44 -298 52 -22 4 -23 3 -17 -28z m270
-94 c16 -3 31 -6 33 -8 1 -2 -26 -22 -62 -44 l-64 -40 -7 26 c-4 15 -9 40 -11
55 -4 32 -15 31 111 11z"/>
<path d="M6330 3675 c-105 -73 -105 -73 -174 -74 -38 0 -71 -2 -73 -4 -4 -5
-7 -44 -4 -64 1 -9 24 -12 77 -12 74 1 76 0 162 -54 139 -87 132 -85 132 -34
0 40 -3 45 -37 65 -21 12 -55 32 -76 45 l-39 24 71 42 c39 24 71 48 72 55 3
58 3 86 -1 85 -3 -1 -52 -34 -110 -74z"/>
<path d="M653 3730 c-44 -18 -56 -53 -60 -175 -4 -115 -4 -115 19 -116 13 0
97 -2 188 -4 l165 -4 -1 113 c0 66 -5 125 -13 143 -24 58 -104 71 -150 26
l-27 -28 -20 23 c-22 25 -69 36 -101 22z m71 -83 c14 -10 17 -25 14 -72 -3
-63 -3 -63 -68 -56 -13 1 -6 107 10 126 15 18 21 19 44 2z m161 -13 c5 -11 9
-43 7 -72 l-4 -51 -39 1 -39 0 0 64 c0 49 4 65 18 73 24 15 45 9 57 -15z"/>
<path d="M4122 3398 c-136 -21 -279 -113 -334 -214 -72 -135 -55 -302 41 -403
71 -75 160 -116 396 -181 237 -65 326 -116 356 -207 22 -68 -5 -167 -62 -224
-11 -11 -44 -32 -73 -45 -174 -79 -426 -30 -587 115 l-57 51 -43 -57 c-24 -31
-48 -63 -52 -70 -15 -24 95 -114 203 -166 194 -93 490 -93 661 0 136 73 211
213 203 373 -11 212 -153 328 -504 415 -260 64 -350 133 -337 256 20 183 260
256 520 159 51 -19 157 -91 165 -112 8 -19 30 -3 75 52 26 32 47 62 47 67 -1
13 -91 83 -146 114 -56 31 -149 64 -209 74 -63 11 -205 12 -263 3z"/>
<path d="M2291 3370 c-4 -8 -6 -330 -6 -715 l1 -700 90 0 89 0 2 305 c0 168 2
314 2 326 1 21 1 21 389 20 l387 -1 0 -326 0 -327 90 -1 90 -2 0 716 c0 786 5
717 -55 717 -11 0 -44 0 -73 -1 l-52 -1 0 -305 c0 -299 0 -305 -20 -306 -87
-4 -745 0 -751 4 -5 3 -8 141 -8 306 l1 301 -56 1 c-31 0 -69 2 -84 3 -18 1
-31 -4 -36 -14z"/>
<path d="M830 2853 c-22 -9 -39 -28 -50 -59 -24 -62 21 -127 88 -128 92 0 135
96 73 163 -29 31 -70 40 -111 24z"/>
<path d="M6108 2843 c-61 -38 -55 -134 10 -166 24 -12 40 -13 82 -8 27 3 60
55 60 93 0 79 -84 123 -152 81z"/>
<path d="M1118 2141 c-139 -92 -145 -97 -131 -116 8 -11 18 -26 22 -34 7 -11
22 -4 71 29 34 23 66 38 70 34 4 -5 26 -38 49 -73 l41 -65 -64 -40 -65 -41 20
-33 c12 -17 23 -32 26 -32 3 0 29 15 57 34 28 18 94 61 146 96 52 34 97 64 98
65 6 6 -31 65 -40 65 -5 0 -33 -17 -64 -37 -47 -31 -57 -35 -65 -22 -4 9 -24
40 -44 69 -40 60 -39 65 32 107 24 13 43 27 43 29 0 16 -33 64 -43 63 -6 0
-78 -44 -159 -98z"/>
<path d="M5731 2182 c-82 -44 -125 -160 -82 -221 25 -35 74 -52 113 -39 14 5
52 32 83 59 58 51 71 55 88 27 22 -34 -12 -77 -101 -127 -9 -6 -10 -15 -1 -40
10 -28 15 -32 37 -26 57 14 137 104 142 160 6 54 -2 78 -30 105 -56 52 -101
44 -189 -34 -28 -25 -55 -46 -60 -46 -20 0 -31 28 -22 52 11 28 66 78 86 78
10 0 11 7 2 35 -12 40 -19 42 -66 17z"/>
<path d="M5425 1798 c-32 -35 -72 -78 -89 -95 l-29 -32 64 -60 c35 -32 96 -89
134 -125 l70 -66 88 92 c48 50 87 95 87 98 0 4 -11 16 -24 29 l-23 22 -62 -68
-61 -67 -30 29 -29 30 61 64 61 64 -27 24 -28 23 -58 -62 c-49 -53 -62 -61
-76 -52 -42 25 -39 39 19 100 31 32 57 62 57 66 0 10 -32 48 -40 48 -4 0 -33
-28 -65 -62z"/>
<path d="M1520 1758 c-79 -22 -140 -100 -141 -181 -1 -53 12 -86 51 -131 89
-101 233 -90 305 25 92 145 -48 332 -215 287z m108 -82 c31 -17 62 -65 62 -96
0 -31 -32 -84 -62 -104 -55 -36 -123 -21 -157 34 -34 57 -8 128 60 162 40 21
65 22 97 4z"/>
<path d="M5085 1488 c-84 -49 -123 -148 -91 -232 42 -109 152 -157 257 -112
54 22 106 88 111 138 4 44 -6 54 -45 44 -17 -4 -26 -16 -33 -43 -10 -43 -61
-83 -103 -83 -40 0 -90 36 -107 76 -35 84 20 167 103 158 28 -3 35 1 49 27 8
17 13 33 10 37 -3 3 -30 7 -59 9 -41 3 -60 -1 -92 -19z"/>
<path d="M1949 1438 c-7 -12 -50 -81 -97 -152 l-84 -130 28 -23 c16 -13 31
-23 34 -23 3 0 36 48 73 108 74 116 73 119 38 -58 -29 -148 -23 -151 104 -57
55 40 106 77 113 81 14 8 -12 -37 -80 -136 -21 -31 -38 -61 -38 -65 1 -12 49
-45 60 -41 8 3 200 292 200 301 0 7 -79 57 -90 57 -6 0 -51 -29 -99 -65 -49
-36 -92 -65 -96 -65 -3 0 -4 9 0 19 3 11 8 30 10 43 3 13 7 34 10 48 3 14 7
36 10 50 3 14 7 36 10 50 4 21 -1 29 -37 50 -24 14 -46 26 -50 28 -4 2 -12 -7
-19 -20z"/>
<path d="M4722 1250 l-31 -19 41 -78 c23 -43 58 -109 80 -146 21 -38 38 -73
38 -77 0 -18 21 -20 50 -5 16 8 30 19 30 23 0 4 -34 70 -75 147 -41 76 -75
142 -75 146 0 4 -6 11 -13 17 -10 8 -21 6 -45 -8z"/>
<path d="M2412 1017 c-33 -84 -62 -162 -66 -173 -6 -20 3 -26 111 -68 109 -42
119 -45 131 -29 26 36 15 50 -60 78 -40 15 -77 31 -81 35 -5 4 -2 23 7 43 l14
36 81 -34 c44 -19 83 -30 85 -26 3 4 10 20 15 34 10 25 8 26 -74 57 -83 32
-84 32 -72 59 18 42 19 42 102 11 43 -17 82 -27 86 -23 4 4 10 20 14 34 6 24
2 27 -62 51 -37 14 -91 35 -120 46 l-51 21 -60 -152z"/>
<path d="M4509 1142 l-34 -17 -2 -138 c0 -76 -3 -140 -5 -142 -2 -2 -44 46
-93 106 -50 60 -94 109 -98 109 -4 0 -24 -7 -43 -15 l-36 -15 59 -67 c32 -37
66 -77 76 -88 10 -11 28 -33 40 -48 12 -16 37 -44 55 -62 l33 -34 44 17 45 16
1 61 c0 33 2 120 4 192 2 73 0 135 -4 137 -4 3 -23 -3 -42 -12z"/>
<path d="M2923 995 c-41 -17 -73 -68 -67 -104 9 -45 32 -70 103 -105 77 -39
91 -59 58 -81 -30 -19 -86 -4 -129 34 l-32 28 -23 -23 c-30 -30 -29 -37 8 -68
58 -49 168 -66 226 -35 32 17 56 74 49 115 -8 38 -40 66 -123 108 -29 15 -53
32 -53 40 0 21 22 34 53 30 25 -2 42 -11 93 -49 9 -6 21 -2 39 15 l25 24 -22
24 c-46 48 -149 72 -205 47z"/>
<path d="M3862 971 c-46 -9 -81 -19 -78 -22 3 -3 8 -23 11 -45 5 -41 35 -238
40 -264 2 -8 4 -22 4 -31 1 -13 8 -15 39 -10 40 7 41 10 31 101 -4 32 -1 35
22 38 22 3 35 -7 70 -52 45 -58 60 -64 117 -48 l23 7 -23 25 c-13 13 -35 40
-50 58 l-28 35 25 23 c72 67 24 194 -77 199 -24 1 -81 -5 -126 -14z m146 -78
c6 -9 12 -22 12 -28 0 -21 -35 -44 -75 -51 -22 -3 -43 -8 -47 -11 -5 -2 -8 3
-8 11 0 21 0 21 -10 56 -5 16 -6 31 -2 31 4 1 20 3 36 5 15 1 30 5 33 8 9 9
48 -4 61 -21z"/>
<path d="M3368 952 c-16 -2 -28 -9 -29 -15 0 -7 -2 -46 -4 -87 -6 -190 -7
-261 -4 -264 2 -3 60 -6 129 -8 l125 -3 3 36 c3 34 1 36 -25 37 -15 0 -56 0
-91 1 l-63 1 3 42 3 43 88 -3 87 -4 0 36 0 36 -70 1 c-38 1 -74 3 -80 4 -5 1
-14 3 -20 4 -5 0 -8 11 -6 24 3 12 5 28 5 35 1 9 24 12 89 10 l87 -3 3 35 3
36 -48 -1 c-26 0 -73 2 -103 5 -30 3 -67 4 -82 2z"/>
</g>
</svg>
